<svg xmlns="http://www.w3.org/2000/svg" xmlns:xlink="http://www.w3.org/1999/xlink" width="500" zoomAndPan="magnify" viewBox="0 0 375 374.999991" height="500" preserveAspectRatio="xMidYMid meet" version="1.2"><defs><clipPath id="eefac9520c"><path d="M 132.109375 117 L 224.359375 117 L 224.359375 205.839844 L 132.109375 205.839844 Z M 132.109375 117 "/></clipPath><clipPath id="c5206cc728"><path d="M 155 94.839844 L 202 94.839844 L 202 137 L 155 137 Z M 155 94.839844 "/></clipPath><clipPath id="6308f78af8"><path d="M 178 144 L 240 144 L 240 219 L 178 219 Z M 178 144 "/></clipPath><clipPath id="c539cc6797"><path d="M 178.339844 153.292969 L 227.921875 144.710938 L 239.234375 210.078125 L 189.652344 218.65625 Z M 178.339844 153.292969 "/></clipPath><clipPath id="0a5ea8b644"><path d="M 172 156 L 235 156 L 235 210 L 172 210 Z M 172 156 "/></clipPath><clipPath id="7197252b19"><path d="M 168.023438 174.078125 L 222.90625 151.78125 L 239.261719 192.035156 L 184.382812 214.335938 Z M 168.023438 174.078125 "/></clipPath><clipPath id="74b9bf35d6"><path d="M 181.921875 168.433594 L 208.980469 157.4375 C 216.65625 154.320312 225.40625 158.011719 228.523438 165.6875 L 233.589844 178.152344 C 236.707031 185.824219 233.015625 194.574219 225.339844 197.695312 L 198.277344 208.691406 C 190.601562 211.808594 181.851562 208.113281 178.734375 200.441406 L 173.671875 187.976562 C 170.550781 180.300781 174.246094 171.550781 181.921875 168.433594 Z M 181.921875 168.433594 "/></clipPath><clipPath id="3a24dbbacb"><path d="M 148 146 L 250 146 L 250 205 L 148 205 Z M 148 146 "/></clipPath><clipPath id="52c6653ac7"><path d="M 148.273438 146.511719 L 245.164062 130.238281 L 260.820312 223.429688 L 163.929688 239.707031 Z M 148.273438 146.511719 "/></clipPath><clipPath id="ca7d0e3c09"><path d="M 148.273438 146.511719 L 245.164062 130.238281 L 260.820312 223.429688 L 163.929688 239.707031 Z M 148.273438 146.511719 "/></clipPath><clipPath id="28713c3675"><path d="M 186 207 L 212 207 L 212 232 L 186 232 Z M 186 207 "/></clipPath><clipPath id="2f20615ad9"><path d="M 148.273438 146.511719 L 245.164062 130.238281 L 260.820312 223.429688 L 163.929688 239.707031 Z M 148.273438 146.511719 "/></clipPath><clipPath id="fe19b60b0c"><path d="M 148.273438 146.511719 L 245.164062 130.238281 L 260.820312 223.429688 L 163.929688 239.707031 Z M 148.273438 146.511719 "/></clipPath><clipPath id="bc8781865f"><path d="M 221 201 L 247 201 L 247 227 L 221 227 Z M 221 201 "/></clipPath><clipPath id="d2f88b0541"><path d="M 148.273438 146.511719 L 245.164062 130.238281 L 260.820312 223.429688 L 163.929688 239.707031 Z M 148.273438 146.511719 "/></clipPath><clipPath id="d7df9a1a75"><path d="M 148.273438 146.511719 L 245.164062 130.238281 L 260.820312 223.429688 L 163.929688 239.707031 Z M 148.273438 146.511719 "/></clipPath><clipPath id="ce7ac7ee37"><path d="M 231.140625 134.757812 L 262.207031 134.757812 L 262.207031 165.828125 L 231.140625 165.828125 Z M 231.140625 134.757812 "/></clipPath><clipPath id="ba50660ddb"><path d="M 246.671875 134.757812 C 238.09375 134.757812 231.140625 141.710938 231.140625 150.292969 C 231.140625 158.871094 238.09375 165.828125 246.671875 165.828125 C 255.253906 165.828125 262.207031 158.871094 262.207031 150.292969 C 262.207031 141.710938 255.253906 134.757812 246.671875 134.757812 Z M 246.671875 134.757812 "/></clipPath><clipPath id="f4ad435ea8"><path d="M 235.3125 138.933594 L 258.03125 138.933594 L 258.03125 161.652344 L 235.3125 161.652344 Z M 235.3125 138.933594 "/></clipPath><clipPath id="b01ea92b87"><path d="M 246.671875 138.933594 C 240.398438 138.933594 235.3125 144.019531 235.3125 150.292969 C 235.3125 156.566406 240.398438 161.652344 246.671875 161.652344 C 252.945312 161.652344 258.03125 156.566406 258.03125 150.292969 C 258.03125 144.019531 252.945312 138.933594 246.671875 138.933594 Z M 246.671875 138.933594 "/></clipPath><clipPath id="c3a2c1c7c7"><path d="M 239.539062 144.84375 L 253.789062 144.84375 L 253.789062 156 L 239.539062 156 Z M 239.539062 144.84375 "/></clipPath></defs><g id="f8c212a01f"><rect x="0" width="375" y="0" height="374.999991" style="fill:#ffffff;fill-opacity:1;stroke:none;"/><rect x="0" width="375" y="0" height="374.999991" style="fill:#ffffff;fill-opacity:1;stroke:none;"/><g clip-rule="nonzero" clip-path="url(#eefac9520c)"><path style=" stroke:none;fill-rule:nonzero;fill:#053262;fill-opacity:1;" d="M 217.550781 205.480469 L 139.378906 205.480469 C 137.480469 205.480469 135.636719 204.691406 134.335938 203.3125 C 133.03125 201.929688 132.34375 200.050781 132.449219 198.152344 L 136.5625 124.085938 C 136.769531 120.402344 139.808594 117.523438 143.492188 117.523438 L 213.433594 117.523438 C 217.121094 117.523438 220.160156 120.402344 220.363281 124.085938 L 224.480469 198.152344 C 224.585938 200.050781 223.898438 201.929688 222.589844 203.3125 C 221.285156 204.691406 219.449219 205.480469 217.550781 205.480469 Z M 143.492188 122.152344 C 142.265625 122.152344 141.25 123.117188 141.183594 124.339844 L 137.070312 198.410156 C 137.035156 199.050781 137.257812 199.664062 137.699219 200.128906 C 138.144531 200.59375 138.734375 200.851562 139.378906 200.851562 L 217.550781 200.851562 C 218.195312 200.851562 218.789062 200.59375 219.230469 200.128906 C 219.671875 199.664062 219.898438 199.050781 219.859375 198.410156 L 215.746094 124.339844 C 215.679688 123.117188 214.660156 122.152344 213.433594 122.152344 Z M 143.492188 122.152344 "/></g><g clip-rule="nonzero" clip-path="url(#c5206cc728)"><path style=" stroke:none;fill-rule:nonzero;fill:#053262;fill-opacity:1;" d="M 199.296875 136.152344 C 198.019531 136.152344 196.980469 135.117188 196.980469 133.839844 L 196.980469 117.949219 C 196.980469 107.738281 188.675781 99.433594 178.464844 99.433594 C 168.25 99.433594 159.945312 107.738281 159.945312 117.949219 L 159.945312 133.839844 C 159.945312 135.117188 158.910156 136.152344 157.632812 136.152344 C 156.355469 136.152344 155.316406 135.117188 155.316406 133.839844 L 155.316406 117.949219 C 155.316406 105.1875 165.699219 94.804688 178.464844 94.804688 C 191.226562 94.804688 201.609375 105.1875 201.609375 117.949219 L 201.609375 133.839844 C 201.609375 135.117188 200.574219 136.152344 199.296875 136.152344 Z M 199.296875 136.152344 "/></g><g clip-rule="nonzero" clip-path="url(#6308f78af8)"><g clip-rule="nonzero" clip-path="url(#c539cc6797)"><path style=" stroke:none;fill-rule:nonzero;fill:#ffffff;fill-opacity:1;" d="M 178.339844 153.292969 L 227.921875 144.710938 L 239.21875 209.980469 L 189.636719 218.5625 Z M 178.339844 153.292969 "/></g></g><g clip-rule="nonzero" clip-path="url(#0a5ea8b644)"><g clip-rule="nonzero" clip-path="url(#7197252b19)"><g clip-rule="nonzero" clip-path="url(#74b9bf35d6)"><path style=" stroke:none;fill-rule:nonzero;fill:#ffffff;fill-opacity:1;" d="M 168.023438 174.078125 L 222.90625 151.78125 L 239.261719 192.035156 L 184.382812 214.335938 Z M 168.023438 174.078125 "/></g></g></g><g clip-rule="nonzero" clip-path="url(#3a24dbbacb)"><g clip-rule="nonzero" clip-path="url(#52c6653ac7)"><g clip-rule="nonzero" clip-path="url(#ca7d0e3c09)"><path style=" stroke:none;fill-rule:evenodd;fill:#00bf63;fill-opacity:1;" d="M 238.304688 149.542969 L 181.46875 159.089844 C 181.070312 159.15625 180.699219 159.296875 180.355469 159.511719 C 180.011719 159.726562 179.722656 160 179.488281 160.332031 C 179.253906 160.660156 179.089844 161.023438 179 161.417969 C 178.90625 161.8125 178.894531 162.207031 178.960938 162.609375 C 179.03125 163.007812 179.171875 163.378906 179.386719 163.722656 C 179.601562 164.066406 179.871094 164.355469 180.203125 164.589844 C 180.53125 164.824219 180.894531 164.988281 181.289062 165.078125 C 181.683594 165.167969 182.082031 165.179688 182.480469 165.113281 L 239.316406 155.566406 C 239.59375 155.519531 239.875 155.507812 240.15625 155.53125 C 240.441406 155.554688 240.714844 155.617188 240.980469 155.710938 C 241.246094 155.804688 241.496094 155.933594 241.730469 156.089844 C 241.964844 156.25 242.175781 156.4375 242.363281 156.648438 C 242.546875 156.859375 242.703125 157.09375 242.832031 157.347656 C 242.957031 157.597656 243.050781 157.863281 243.109375 158.140625 C 243.167969 158.417969 243.191406 158.695312 243.179688 158.980469 C 243.167969 159.261719 243.121094 159.539062 243.039062 159.808594 C 240.757812 167.292969 238.429688 183.527344 236.800781 188.84375 C 236.617188 189.441406 236.289062 189.949219 235.816406 190.363281 C 235.34375 190.777344 234.796875 191.035156 234.179688 191.140625 L 192.335938 198.167969 C 192.007812 198.226562 191.679688 198.230469 191.347656 198.1875 C 191.019531 198.144531 190.703125 198.054688 190.402344 197.914062 C 190.097656 197.777344 189.824219 197.597656 189.574219 197.375 C 189.324219 197.152344 189.117188 196.902344 188.941406 196.617188 C 188.9375 196.582031 172.433594 155.9375 172.433594 155.9375 C 172.097656 155.109375 171.695312 154.316406 171.226562 153.558594 C 170.757812 152.800781 170.230469 152.085938 169.640625 151.417969 C 169.050781 150.746094 168.40625 150.132812 167.714844 149.570312 C 167.019531 149.011719 166.28125 148.511719 165.503906 148.078125 C 164.726562 147.640625 163.914062 147.273438 163.074219 146.976562 C 162.234375 146.679688 161.375 146.453125 160.496094 146.300781 C 159.617188 146.148438 158.730469 146.070312 157.839844 146.066406 C 156.945312 146.066406 156.0625 146.136719 155.179688 146.285156 L 151.441406 146.914062 C 151.03125 146.960938 150.648438 147.09375 150.296875 147.304688 C 149.941406 147.511719 149.644531 147.785156 149.40625 148.121094 C 149.167969 148.457031 149.007812 148.828125 148.925781 149.230469 C 148.84375 149.632812 148.84375 150.035156 148.933594 150.4375 C 149 150.835938 149.140625 151.207031 149.355469 151.550781 C 149.574219 151.894531 149.84375 152.183594 150.175781 152.417969 C 150.503906 152.652344 150.867188 152.8125 151.257812 152.90625 C 151.652344 152.996094 152.050781 153.007812 152.449219 152.941406 L 156.195312 152.3125 C 156.734375 152.222656 157.277344 152.179688 157.820312 152.179688 C 158.367188 152.179688 158.910156 152.226562 159.449219 152.320312 C 159.988281 152.414062 160.515625 152.550781 161.03125 152.734375 C 161.546875 152.917969 162.042969 153.140625 162.519531 153.40625 C 162.996094 153.671875 163.449219 153.976562 163.875 154.320312 C 164.300781 154.664062 164.691406 155.039062 165.054688 155.449219 C 165.417969 155.859375 165.742188 156.296875 166.03125 156.761719 C 166.316406 157.222656 166.566406 157.710938 166.769531 158.214844 L 183.335938 199.039062 C 183.375 199.128906 183.417969 199.230469 183.46875 199.320312 C 183.929688 200.191406 184.515625 200.972656 185.226562 201.660156 C 185.9375 202.351562 186.734375 202.914062 187.621094 203.351562 C 188.507812 203.789062 189.441406 204.078125 190.417969 204.222656 C 191.394531 204.367188 192.371094 204.355469 193.347656 204.191406 L 235.191406 197.164062 C 236.054688 197.019531 236.878906 196.757812 237.671875 196.382812 C 238.460938 196.007812 239.183594 195.53125 239.84375 194.953125 C 240.5 194.375 241.066406 193.71875 241.542969 192.984375 C 242.015625 192.25 242.382812 191.464844 242.636719 190.628906 C 244.265625 185.3125 246.582031 169.089844 248.875 161.59375 C 248.992188 161.214844 249.085938 160.824219 249.152344 160.429688 C 249.21875 160.035156 249.261719 159.640625 249.28125 159.238281 C 249.296875 158.839844 249.289062 158.441406 249.253906 158.042969 C 249.222656 157.644531 249.164062 157.25 249.078125 156.859375 C 248.996094 156.46875 248.886719 156.082031 248.753906 155.707031 C 248.621094 155.328125 248.464844 154.960938 248.285156 154.605469 C 248.105469 154.246094 247.90625 153.902344 247.679688 153.570312 C 247.457031 153.238281 247.214844 152.921875 246.949219 152.621094 C 246.6875 152.320312 246.40625 152.039062 246.105469 151.773438 C 245.804688 151.507812 245.492188 151.265625 245.160156 151.039062 C 244.828125 150.816406 244.484375 150.613281 244.128906 150.429688 C 243.773438 150.25 243.40625 150.09375 243.027344 149.957031 C 242.652344 149.824219 242.269531 149.714844 241.875 149.628906 C 241.484375 149.542969 241.089844 149.484375 240.691406 149.449219 C 240.292969 149.414062 239.894531 149.402344 239.496094 149.417969 C 239.097656 149.433594 238.699219 149.476562 238.304688 149.542969 Z M 238.304688 149.542969 "/></g></g></g><g clip-rule="nonzero" clip-path="url(#28713c3675)"><g clip-rule="nonzero" clip-path="url(#2f20615ad9)"><g clip-rule="nonzero" clip-path="url(#fe19b60b0c)"><path style=" stroke:none;fill-rule:evenodd;fill:#00bf63;fill-opacity:1;" d="M 197.214844 207.171875 C 196.40625 207.308594 195.617188 207.523438 194.851562 207.8125 C 194.085938 208.101562 193.355469 208.464844 192.664062 208.902344 C 191.96875 209.335938 191.324219 209.832031 190.726562 210.394531 C 190.128906 210.957031 189.59375 211.570312 189.117188 212.238281 C 188.644531 212.90625 188.238281 213.613281 187.902344 214.359375 C 187.566406 215.105469 187.304688 215.878906 187.121094 216.679688 C 186.9375 217.476562 186.835938 218.285156 186.808594 219.101562 C 186.785156 219.921875 186.839844 220.734375 186.976562 221.542969 C 187.113281 222.351562 187.328125 223.136719 187.617188 223.902344 C 187.90625 224.667969 188.269531 225.398438 188.707031 226.09375 C 189.140625 226.789062 189.636719 227.433594 190.199219 228.03125 C 190.761719 228.625 191.375 229.164062 192.042969 229.636719 C 192.710938 230.113281 193.417969 230.519531 194.164062 230.855469 C 194.914062 231.191406 195.683594 231.449219 196.484375 231.632812 C 197.28125 231.816406 198.089844 231.921875 198.910156 231.945312 C 199.726562 231.96875 200.542969 231.914062 201.347656 231.777344 C 202.15625 231.640625 202.945312 231.429688 203.710938 231.136719 C 204.476562 230.847656 205.207031 230.484375 205.898438 230.050781 C 206.59375 229.613281 207.238281 229.117188 207.835938 228.554688 C 208.429688 227.992188 208.96875 227.378906 209.441406 226.710938 C 209.917969 226.042969 210.324219 225.335938 210.660156 224.589844 C 210.996094 223.84375 211.253906 223.070312 211.4375 222.269531 C 211.621094 221.472656 211.726562 220.664062 211.75 219.84375 C 211.773438 219.027344 211.71875 218.214844 211.582031 217.40625 C 211.445312 216.597656 211.230469 215.8125 210.941406 215.046875 C 210.648438 214.28125 210.285156 213.550781 209.851562 212.855469 C 209.417969 212.164062 208.917969 211.519531 208.359375 210.921875 C 207.796875 210.328125 207.183594 209.792969 206.515625 209.316406 C 205.847656 208.839844 205.140625 208.4375 204.394531 208.101562 C 203.648438 207.765625 202.875 207.503906 202.078125 207.320312 C 201.277344 207.136719 200.472656 207.03125 199.652344 207.007812 C 198.832031 206.984375 198.019531 207.039062 197.214844 207.171875 Z M 200.335938 225.757812 C 199.921875 225.824219 199.507812 225.855469 199.089844 225.839844 C 198.671875 225.828125 198.257812 225.777344 197.851562 225.683594 C 197.445312 225.589844 197.050781 225.457031 196.667969 225.285156 C 196.285156 225.113281 195.925781 224.90625 195.585938 224.664062 C 195.246094 224.421875 194.929688 224.148438 194.644531 223.84375 C 194.359375 223.539062 194.105469 223.207031 193.882812 222.855469 C 193.660156 222.5 193.476562 222.128906 193.328125 221.738281 C 193.179688 221.34375 193.070312 220.945312 193 220.53125 C 192.929688 220.121094 192.902344 219.703125 192.914062 219.285156 C 192.925781 218.867188 192.980469 218.457031 193.074219 218.046875 C 193.167969 217.640625 193.300781 217.246094 193.472656 216.863281 C 193.640625 216.484375 193.847656 216.121094 194.09375 215.78125 C 194.335938 215.441406 194.609375 215.128906 194.910156 214.839844 C 195.214844 214.554688 195.546875 214.300781 195.898438 214.078125 C 196.253906 213.855469 196.628906 213.671875 197.019531 213.523438 C 197.410156 213.375 197.808594 213.265625 198.222656 213.195312 C 198.636719 213.125 199.050781 213.097656 199.46875 213.109375 C 199.886719 213.121094 200.296875 213.175781 200.707031 213.269531 C 201.113281 213.363281 201.507812 213.496094 201.890625 213.667969 C 202.269531 213.835938 202.632812 214.042969 202.972656 214.285156 C 203.3125 214.53125 203.625 214.800781 203.914062 215.105469 C 204.199219 215.410156 204.453125 215.742188 204.675781 216.09375 C 204.898438 216.449219 205.085938 216.820312 205.234375 217.210938 C 205.382812 217.601562 205.488281 218.003906 205.558594 218.417969 C 205.628906 218.828125 205.65625 219.246094 205.644531 219.664062 C 205.632812 220.082031 205.578125 220.492188 205.484375 220.902344 C 205.390625 221.308594 205.257812 221.703125 205.085938 222.085938 C 204.914062 222.464844 204.707031 222.828125 204.464844 223.167969 C 204.222656 223.507812 203.949219 223.820312 203.644531 224.109375 C 203.339844 224.394531 203.011719 224.648438 202.65625 224.871094 C 202.304688 225.09375 201.929688 225.28125 201.539062 225.429688 C 201.148438 225.578125 200.746094 225.6875 200.335938 225.757812 Z M 200.335938 225.757812 "/></g></g></g><g clip-rule="nonzero" clip-path="url(#bc8781865f)"><g clip-rule="nonzero" clip-path="url(#d2f88b0541)"><g clip-rule="nonzero" clip-path="url(#d7df9a1a75)"><path style=" stroke:none;fill-rule:evenodd;fill:#00bf63;fill-opacity:1;" d="M 231.503906 201.414062 C 230.695312 201.546875 229.90625 201.761719 229.140625 202.050781 C 228.375 202.34375 227.644531 202.707031 226.953125 203.140625 C 226.257812 203.574219 225.613281 204.074219 225.015625 204.632812 C 224.417969 205.195312 223.882812 205.8125 223.40625 206.476562 C 222.933594 207.144531 222.527344 207.851562 222.191406 208.597656 C 221.855469 209.347656 221.59375 210.121094 221.410156 210.917969 C 221.226562 211.714844 221.125 212.523438 221.101562 213.34375 C 221.074219 214.160156 221.132812 214.976562 221.265625 215.785156 C 221.402344 216.589844 221.617188 217.378906 221.90625 218.144531 C 222.199219 218.910156 222.558594 219.640625 222.996094 220.335938 C 223.429688 221.027344 223.925781 221.671875 224.488281 222.269531 C 225.050781 222.867188 225.664062 223.402344 226.332031 223.878906 C 227 224.351562 227.707031 224.757812 228.453125 225.09375 C 229.203125 225.429688 229.972656 225.6875 230.773438 225.871094 C 231.570312 226.054688 232.378906 226.160156 233.199219 226.183594 C 234.015625 226.210938 234.832031 226.152344 235.636719 226.019531 C 236.445312 225.882812 237.234375 225.667969 238 225.378906 C 238.765625 225.085938 239.496094 224.722656 240.1875 224.289062 C 240.882812 223.855469 241.527344 223.355469 242.125 222.792969 C 242.722656 222.234375 243.257812 221.617188 243.730469 220.949219 C 244.207031 220.285156 244.613281 219.578125 244.949219 218.828125 C 245.285156 218.082031 245.542969 217.308594 245.726562 216.511719 C 245.910156 215.710938 246.015625 214.902344 246.039062 214.085938 C 246.0625 213.265625 246.007812 212.453125 245.871094 211.644531 C 245.734375 210.835938 245.523438 210.050781 245.230469 209.285156 C 244.941406 208.519531 244.578125 207.789062 244.140625 207.097656 C 243.707031 206.402344 243.210938 205.757812 242.648438 205.160156 C 242.085938 204.566406 241.472656 204.03125 240.804688 203.554688 C 240.136719 203.078125 239.429688 202.675781 238.683594 202.339844 C 237.9375 202.003906 237.164062 201.742188 236.367188 201.558594 C 235.570312 201.375 234.761719 201.269531 233.941406 201.246094 C 233.125 201.222656 232.308594 201.277344 231.503906 201.414062 Z M 234.625 219.996094 C 234.210938 220.066406 233.796875 220.09375 233.378906 220.082031 C 232.960938 220.070312 232.546875 220.015625 232.140625 219.921875 C 231.734375 219.828125 231.339844 219.695312 230.957031 219.523438 C 230.578125 219.351562 230.214844 219.144531 229.875 218.902344 C 229.535156 218.660156 229.21875 218.386719 228.933594 218.082031 C 228.648438 217.777344 228.394531 217.449219 228.171875 217.09375 C 227.949219 216.738281 227.765625 216.367188 227.617188 215.976562 C 227.46875 215.585938 227.359375 215.183594 227.289062 214.773438 C 227.21875 214.359375 227.191406 213.945312 227.203125 213.527344 C 227.214844 213.109375 227.269531 212.695312 227.363281 212.289062 C 227.457031 211.878906 227.589844 211.484375 227.761719 211.105469 C 227.933594 210.722656 228.140625 210.363281 228.382812 210.023438 C 228.625 209.679688 228.898438 209.367188 229.203125 209.082031 C 229.503906 208.792969 229.835938 208.539062 230.1875 208.316406 C 230.542969 208.097656 230.917969 207.910156 231.308594 207.761719 C 231.699219 207.613281 232.101562 207.503906 232.511719 207.433594 C 232.925781 207.367188 233.339844 207.335938 233.757812 207.351562 C 234.175781 207.363281 234.589844 207.414062 234.996094 207.507812 C 235.402344 207.601562 235.796875 207.734375 236.179688 207.90625 C 236.558594 208.078125 236.921875 208.285156 237.261719 208.527344 C 237.601562 208.769531 237.917969 209.042969 238.203125 209.347656 C 238.488281 209.652344 238.746094 209.980469 238.964844 210.335938 C 239.1875 210.6875 239.375 211.0625 239.523438 211.453125 C 239.671875 211.84375 239.78125 212.246094 239.847656 212.65625 C 239.917969 213.070312 239.945312 213.484375 239.933594 213.902344 C 239.921875 214.320312 239.867188 214.734375 239.773438 215.140625 C 239.679688 215.546875 239.546875 215.941406 239.375 216.324219 C 239.203125 216.707031 238.996094 217.066406 238.753906 217.40625 C 238.511719 217.746094 238.238281 218.0625 237.933594 218.347656 C 237.628906 218.636719 237.300781 218.890625 236.945312 219.113281 C 236.59375 219.332031 236.21875 219.519531 235.828125 219.667969 C 235.4375 219.816406 235.035156 219.925781 234.625 219.996094 Z M 234.625 219.996094 "/></g></g></g><g clip-rule="nonzero" clip-path="url(#ce7ac7ee37)"><g clip-rule="nonzero" clip-path="url(#ba50660ddb)"><path style=" stroke:none;fill-rule:nonzero;fill:#ffffff;fill-opacity:1;" d="M 231.140625 134.757812 L 262.207031 134.757812 L 262.207031 165.828125 L 231.140625 165.828125 Z M 231.140625 134.757812 "/></g></g><g clip-rule="nonzero" clip-path="url(#f4ad435ea8)"><g clip-rule="nonzero" clip-path="url(#b01ea92b87)"><path style=" stroke:none;fill-rule:nonzero;fill:#00bf63;fill-opacity:1;" d="M 235.3125 138.933594 L 258.03125 138.933594 L 258.03125 161.652344 L 235.3125 161.652344 Z M 235.3125 138.933594 "/></g></g><g clip-rule="nonzero" clip-path="url(#c3a2c1c7c7)"><path style=" stroke:none;fill-rule:nonzero;fill:#ffffff;fill-opacity:1;" d="M 252.863281 144.847656 C 252.640625 144.855469 252.449219 144.9375 252.292969 145.097656 L 243.765625 153.625 L 241.039062 150.898438 C 240.875 150.730469 240.679688 150.644531 240.449219 150.644531 C 240.214844 150.640625 240.019531 150.722656 239.855469 150.886719 C 239.691406 151.050781 239.609375 151.25 239.609375 151.480469 C 239.613281 151.714844 239.699219 151.910156 239.867188 152.070312 L 243.179688 155.382812 C 243.339844 155.546875 243.535156 155.625 243.765625 155.625 C 243.996094 155.625 244.1875 155.546875 244.351562 155.382812 L 253.464844 146.269531 C 253.585938 146.152344 253.664062 146.007812 253.699219 145.839844 C 253.734375 145.671875 253.714844 145.511719 253.648438 145.355469 C 253.582031 145.195312 253.476562 145.070312 253.335938 144.980469 C 253.191406 144.886719 253.035156 144.84375 252.863281 144.847656 Z M 252.863281 144.847656 "/></g><g style="fill:#053262;fill-opacity:1;"><g transform="translate(149.513543, 276.95936)"><path style="stroke:none" d="M 0.640625 -0.15625 L 0.640625 -5.78125 C 0.640625 -5.882812 0.691406 -5.9375 0.796875 -5.9375 L 3.125 -5.9375 C 3.488281 -5.9375 3.804688 -5.84375 4.078125 -5.65625 C 4.359375 -5.476562 4.578125 -5.242188 4.734375 -4.953125 C 4.890625 -4.660156 4.96875 -4.351562 4.96875 -4.03125 C 4.96875 -3.695312 4.882812 -3.382812 4.71875 -3.09375 C 4.5625 -2.8125 4.34375 -2.582031 4.0625 -2.40625 C 3.78125 -2.226562 3.460938 -2.140625 3.109375 -2.140625 L 1.8125 -2.140625 L 1.8125 -0.15625 C 1.8125 -0.0507812 1.753906 0 1.640625 0 L 0.796875 0 C 0.691406 0 0.640625 -0.0507812 0.640625 -0.15625 Z M 2.890625 -4.921875 L 1.8125 -4.921875 L 1.8125 -3.140625 L 2.890625 -3.140625 C 3.160156 -3.140625 3.378906 -3.222656 3.546875 -3.390625 C 3.710938 -3.566406 3.796875 -3.78125 3.796875 -4.03125 C 3.796875 -4.269531 3.710938 -4.476562 3.546875 -4.65625 C 3.378906 -4.832031 3.160156 -4.921875 2.890625 -4.921875 Z M 2.890625 -4.921875 "/></g></g><g style="fill:#053262;fill-opacity:1;"><g transform="translate(156.945577, 276.95936)"><path style="stroke:none" d="M 0.125 -0.171875 L 2.375 -5.78125 C 2.425781 -5.882812 2.492188 -5.9375 2.578125 -5.9375 L 3.25 -5.9375 C 3.34375 -5.9375 3.410156 -5.882812 3.453125 -5.78125 L 5.703125 -0.171875 C 5.734375 -0.117188 5.734375 -0.078125 5.703125 -0.046875 C 5.679688 -0.015625 5.644531 0 5.59375 0 L 4.71875 0 C 4.625 0 4.554688 -0.046875 4.515625 -0.140625 L 4.140625 -1.109375 L 1.6875 -1.109375 L 1.296875 -0.140625 C 1.265625 -0.046875 1.203125 0 1.109375 0 L 0.21875 0 C 0.101562 0 0.0703125 -0.0546875 0.125 -0.171875 Z M 2.90625 -4.40625 L 2.0625 -2.140625 L 3.75 -2.140625 Z M 2.90625 -4.40625 "/></g></g><g style="fill:#053262;fill-opacity:1;"><g transform="translate(165.073617, 276.95936)"><path style="stroke:none" d="M 4.484375 -0.15625 L 4.484375 -2.5625 L 1.8125 -2.5625 L 1.8125 -0.15625 C 1.8125 -0.0507812 1.753906 0 1.640625 0 L 0.796875 0 C 0.691406 0 0.640625 -0.0507812 0.640625 -0.15625 L 0.640625 -5.765625 C 0.640625 -5.878906 0.691406 -5.9375 0.796875 -5.9375 L 1.65625 -5.9375 C 1.695312 -5.9375 1.734375 -5.925781 1.765625 -5.90625 C 1.796875 -5.882812 1.8125 -5.84375 1.8125 -5.78125 L 1.8125 -3.6875 L 4.484375 -3.6875 L 4.484375 -5.765625 C 4.484375 -5.878906 4.53125 -5.9375 4.625 -5.9375 L 5.5 -5.9375 C 5.53125 -5.9375 5.5625 -5.925781 5.59375 -5.90625 C 5.625 -5.882812 5.640625 -5.84375 5.640625 -5.78125 L 5.640625 -0.15625 C 5.640625 -0.0507812 5.582031 0 5.46875 0 L 4.625 0 C 4.53125 0 4.484375 -0.0507812 4.484375 -0.15625 Z M 4.484375 -0.15625 "/></g></g><g style="fill:#053262;fill-opacity:1;"><g transform="translate(173.657661, 276.95936)"><path style="stroke:none" d="M 0.125 -0.171875 L 2.375 -5.78125 C 2.425781 -5.882812 2.492188 -5.9375 2.578125 -5.9375 L 3.25 -5.9375 C 3.34375 -5.9375 3.410156 -5.882812 3.453125 -5.78125 L 5.703125 -0.171875 C 5.734375 -0.117188 5.734375 -0.078125 5.703125 -0.046875 C 5.679688 -0.015625 5.644531 0 5.59375 0 L 4.71875 0 C 4.625 0 4.554688 -0.046875 4.515625 -0.140625 L 4.140625 -1.109375 L 1.6875 -1.109375 L 1.296875 -0.140625 C 1.265625 -0.046875 1.203125 0 1.109375 0 L 0.21875 0 C 0.101562 0 0.0703125 -0.0546875 0.125 -0.171875 Z M 2.90625 -4.40625 L 2.0625 -2.140625 L 3.75 -2.140625 Z M 2.90625 -4.40625 "/></g></g><g style="fill:#053262;fill-opacity:1;"><g transform="translate(181.785701, 276.95936)"><path style="stroke:none" d="M 0.640625 -0.171875 L 0.640625 -5.765625 C 0.640625 -5.804688 0.65625 -5.84375 0.6875 -5.875 C 0.71875 -5.914062 0.765625 -5.9375 0.828125 -5.9375 L 1.765625 -5.9375 C 1.804688 -5.9375 1.847656 -5.925781 1.890625 -5.90625 C 1.929688 -5.882812 1.960938 -5.851562 1.984375 -5.8125 L 4.625 -2.03125 L 4.625 -5.8125 C 4.632812 -5.863281 4.65625 -5.894531 4.6875 -5.90625 C 4.726562 -5.925781 4.765625 -5.9375 4.796875 -5.9375 L 5.609375 -5.9375 C 5.648438 -5.9375 5.691406 -5.921875 5.734375 -5.890625 C 5.773438 -5.859375 5.796875 -5.816406 5.796875 -5.765625 L 5.796875 -0.171875 C 5.796875 -0.0546875 5.734375 0 5.609375 0 L 4.8125 0 C 4.75 0 4.703125 -0.0078125 4.671875 -0.03125 C 4.640625 -0.0625 4.609375 -0.09375 4.578125 -0.125 L 1.8125 -4.125 L 1.8125 -0.171875 C 1.8125 -0.0546875 1.75 0 1.625 0 L 0.828125 0 C 0.703125 0 0.640625 -0.0546875 0.640625 -0.171875 Z M 0.640625 -0.171875 "/></g></g><g style="fill:#053262;fill-opacity:1;"><g transform="translate(190.529749, 276.95936)"><path style="stroke:none" d="M 0.125 -0.171875 L 2.375 -5.78125 C 2.425781 -5.882812 2.492188 -5.9375 2.578125 -5.9375 L 3.25 -5.9375 C 3.34375 -5.9375 3.410156 -5.882812 3.453125 -5.78125 L 5.703125 -0.171875 C 5.734375 -0.117188 5.734375 -0.078125 5.703125 -0.046875 C 5.679688 -0.015625 5.644531 0 5.59375 0 L 4.71875 0 C 4.625 0 4.554688 -0.046875 4.515625 -0.140625 L 4.140625 -1.109375 L 1.6875 -1.109375 L 1.296875 -0.140625 C 1.265625 -0.046875 1.203125 0 1.109375 0 L 0.21875 0 C 0.101562 0 0.0703125 -0.0546875 0.125 -0.171875 Z M 2.90625 -4.40625 L 2.0625 -2.140625 L 3.75 -2.140625 Z M 2.90625 -4.40625 "/></g></g><g style="fill:#053262;fill-opacity:1;"><g transform="translate(198.657788, 276.95936)"><path style="stroke:none" d=""/></g></g><g style="fill:#053262;fill-opacity:1;"><g transform="translate(203.561805, 276.95936)"><path style="stroke:none" d="M 0.640625 -0.15625 L 0.640625 -5.78125 C 0.640625 -5.882812 0.691406 -5.9375 0.796875 -5.9375 L 4.71875 -5.9375 C 4.820312 -5.9375 4.875 -5.882812 4.875 -5.78125 L 4.875 -5 C 4.875 -4.894531 4.820312 -4.84375 4.71875 -4.84375 L 1.8125 -4.84375 L 1.8125 -3.625 L 4.03125 -3.625 C 4.144531 -3.625 4.203125 -3.570312 4.203125 -3.46875 L 4.203125 -2.71875 C 4.203125 -2.601562 4.144531 -2.546875 4.03125 -2.546875 L 1.8125 -2.546875 L 1.8125 -1.09375 L 4.78125 -1.09375 C 4.894531 -1.09375 4.953125 -1.035156 4.953125 -0.921875 L 4.953125 -0.15625 C 4.953125 -0.0507812 4.894531 0 4.78125 0 L 0.796875 0 C 0.691406 0 0.640625 -0.0507812 0.640625 -0.15625 Z M 0.640625 -0.15625 "/></g></g><g style="fill:#053262;fill-opacity:1;"><g transform="translate(211.097844, 276.95936)"><path style="stroke:none" d="M 0.640625 -0.15625 L 0.640625 -5.78125 C 0.640625 -5.882812 0.695312 -5.9375 0.8125 -5.9375 L 2.71875 -5.9375 C 3.09375 -5.9375 3.457031 -5.859375 3.8125 -5.703125 C 4.175781 -5.554688 4.5 -5.347656 4.78125 -5.078125 C 5.070312 -4.804688 5.300781 -4.488281 5.46875 -4.125 C 5.632812 -3.769531 5.71875 -3.382812 5.71875 -2.96875 C 5.71875 -2.570312 5.640625 -2.195312 5.484375 -1.84375 C 5.335938 -1.488281 5.128906 -1.175781 4.859375 -0.90625 C 4.585938 -0.632812 4.269531 -0.421875 3.90625 -0.265625 C 3.550781 -0.109375 3.164062 -0.0195312 2.75 0 L 0.8125 0 C 0.695312 0 0.640625 -0.0507812 0.640625 -0.15625 Z M 4.546875 -2.96875 C 4.546875 -3.320312 4.460938 -3.640625 4.296875 -3.921875 C 4.128906 -4.210938 3.898438 -4.441406 3.609375 -4.609375 C 3.316406 -4.773438 2.984375 -4.859375 2.609375 -4.859375 L 1.828125 -4.859375 L 1.828125 -1.078125 L 2.609375 -1.078125 C 2.984375 -1.078125 3.316406 -1.160156 3.609375 -1.328125 C 3.898438 -1.492188 4.128906 -1.722656 4.296875 -2.015625 C 4.460938 -2.304688 4.546875 -2.625 4.546875 -2.96875 Z M 4.546875 -2.96875 "/></g></g><g style="fill:#053262;fill-opacity:1;"><g transform="translate(219.457889, 276.95936)"><path style="stroke:none" d="M 1.734375 -5.765625 L 1.734375 -2.34375 C 1.734375 -2.09375 1.785156 -1.863281 1.890625 -1.65625 C 2.003906 -1.457031 2.15625 -1.296875 2.34375 -1.171875 C 2.53125 -1.046875 2.753906 -0.984375 3.015625 -0.984375 C 3.265625 -0.984375 3.484375 -1.046875 3.671875 -1.171875 C 3.859375 -1.296875 4.003906 -1.457031 4.109375 -1.65625 C 4.210938 -1.863281 4.265625 -2.09375 4.265625 -2.34375 L 4.265625 -5.765625 C 4.265625 -5.804688 4.28125 -5.84375 4.3125 -5.875 C 4.351562 -5.914062 4.398438 -5.9375 4.453125 -5.9375 L 5.25 -5.9375 C 5.289062 -5.9375 5.332031 -5.921875 5.375 -5.890625 C 5.425781 -5.859375 5.453125 -5.816406 5.453125 -5.765625 L 5.453125 -2.34375 C 5.453125 -2.007812 5.382812 -1.691406 5.25 -1.390625 C 5.125 -1.097656 4.953125 -0.835938 4.734375 -0.609375 C 4.515625 -0.390625 4.253906 -0.21875 3.953125 -0.09375 C 3.660156 0.03125 3.347656 0.09375 3.015625 0.09375 C 2.671875 0.09375 2.347656 0.03125 2.046875 -0.09375 C 1.753906 -0.21875 1.492188 -0.390625 1.265625 -0.609375 C 1.046875 -0.835938 0.875 -1.097656 0.75 -1.390625 C 0.625 -1.691406 0.5625 -2.007812 0.5625 -2.34375 L 0.5625 -5.765625 C 0.5625 -5.804688 0.578125 -5.84375 0.609375 -5.875 C 0.640625 -5.914062 0.679688 -5.9375 0.734375 -5.9375 L 1.546875 -5.9375 C 1.585938 -5.9375 1.628906 -5.914062 1.671875 -5.875 C 1.710938 -5.84375 1.734375 -5.804688 1.734375 -5.765625 Z M 1.734375 -5.765625 "/></g></g><g style="fill:#053262;fill-opacity:1;"><g transform="translate(64.249036, 263.093011)"><path style="stroke:none" d="M 13.3125 -20.65625 L 13.3125 -16.515625 L 6.203125 -16.515625 L 6.203125 -12.421875 L 13.015625 -12.421875 L 13.015625 -8.28125 L 6.203125 -8.28125 L 6.203125 -4.125 L 13.3125 -4.125 L 13.3125 0 L 1.5 0 L 1.5 -20.65625 Z M 13.3125 -20.65625 "/></g></g><g style="fill:#053262;fill-opacity:1;"><g transform="translate(81.263538, 263.093011)"><path style="stroke:none" d="M 11.984375 -20.65625 L 20.328125 0 L 15.265625 0 L 13.75 -4.125 L 5.875 -4.125 L 4.359375 0 L -0.703125 0 L 7.640625 -20.65625 Z M 12.140625 -8.265625 L 9.84375 -14.265625 L 9.78125 -14.265625 L 7.484375 -8.265625 Z M 12.140625 -8.265625 "/></g></g><g style="fill:#053262;fill-opacity:1;"><g transform="translate(103.382013, 263.093011)"><path style="stroke:none" d="M 9.109375 -21.03125 C 10.222656 -21.03125 11.316406 -20.863281 12.390625 -20.53125 C 13.460938 -20.207031 14.253906 -19.890625 14.765625 -19.578125 L 15.515625 -19.078125 L 13.609375 -15.3125 C 13.460938 -15.414062 13.253906 -15.546875 12.984375 -15.703125 C 12.722656 -15.859375 12.222656 -16.070312 11.484375 -16.34375 C 10.753906 -16.613281 10.070312 -16.75 9.4375 -16.75 C 8.65625 -16.75 8.050781 -16.582031 7.625 -16.25 C 7.195312 -15.914062 6.984375 -15.460938 6.984375 -14.890625 C 6.984375 -14.609375 7.082031 -14.347656 7.28125 -14.109375 C 7.476562 -13.867188 7.816406 -13.609375 8.296875 -13.328125 C 8.785156 -13.054688 9.210938 -12.835938 9.578125 -12.671875 C 9.953125 -12.503906 10.523438 -12.253906 11.296875 -11.921875 C 12.628906 -11.347656 13.765625 -10.570312 14.703125 -9.59375 C 15.648438 -8.625 16.125 -7.519531 16.125 -6.28125 C 16.125 -5.09375 15.910156 -4.054688 15.484375 -3.171875 C 15.054688 -2.296875 14.46875 -1.601562 13.71875 -1.09375 C 12.976562 -0.59375 12.15625 -0.222656 11.25 0.015625 C 10.351562 0.253906 9.378906 0.375 8.328125 0.375 C 7.429688 0.375 6.546875 0.28125 5.671875 0.09375 C 4.804688 -0.0820312 4.082031 -0.304688 3.5 -0.578125 C 2.914062 -0.859375 2.390625 -1.128906 1.921875 -1.390625 C 1.453125 -1.660156 1.113281 -1.890625 0.90625 -2.078125 L 0.578125 -2.359375 L 2.921875 -6.3125 C 3.128906 -6.144531 3.40625 -5.929688 3.75 -5.671875 C 4.101562 -5.410156 4.722656 -5.0625 5.609375 -4.625 C 6.503906 -4.195312 7.296875 -3.984375 7.984375 -3.984375 C 9.972656 -3.984375 10.96875 -4.65625 10.96875 -6 C 10.96875 -6.289062 10.894531 -6.554688 10.75 -6.796875 C 10.601562 -7.035156 10.351562 -7.273438 10 -7.515625 C 9.644531 -7.765625 9.328125 -7.957031 9.046875 -8.09375 C 8.773438 -8.238281 8.328125 -8.457031 7.703125 -8.75 C 7.078125 -9.039062 6.613281 -9.257812 6.3125 -9.40625 C 5.0625 -10.03125 4.09375 -10.800781 3.40625 -11.71875 C 2.71875 -12.644531 2.375 -13.644531 2.375 -14.71875 C 2.375 -16.570312 3.054688 -18.085938 4.421875 -19.265625 C 5.796875 -20.441406 7.359375 -21.03125 9.109375 -21.03125 Z M 9.109375 -21.03125 "/></g></g><g style="fill:#053262;fill-opacity:1;"><g transform="translate(122.698312, 263.093011)"><path style="stroke:none" d="M -0.75 -20.65625 L 4.90625 -20.65625 L 9.21875 -14.046875 L 13.515625 -20.65625 L 19.171875 -20.65625 L 11.5625 -9.265625 L 11.5625 0 L 6.859375 0 L 6.859375 -9.265625 Z M -0.75 -20.65625 "/></g></g><g style="fill:#053262;fill-opacity:1;"><g transform="translate(143.615855, 263.093011)"><path style="stroke:none" d=""/></g></g><g style="fill:#053262;fill-opacity:1;"><g transform="translate(152.949381, 263.093011)"><path style="stroke:none" d="M 9.109375 -21.03125 C 10.222656 -21.03125 11.316406 -20.863281 12.390625 -20.53125 C 13.460938 -20.207031 14.253906 -19.890625 14.765625 -19.578125 L 15.515625 -19.078125 L 13.609375 -15.3125 C 13.460938 -15.414062 13.253906 -15.546875 12.984375 -15.703125 C 12.722656 -15.859375 12.222656 -16.070312 11.484375 -16.34375 C 10.753906 -16.613281 10.070312 -16.75 9.4375 -16.75 C 8.65625 -16.75 8.050781 -16.582031 7.625 -16.25 C 7.195312 -15.914062 6.984375 -15.460938 6.984375 -14.890625 C 6.984375 -14.609375 7.082031 -14.347656 7.28125 -14.109375 C 7.476562 -13.867188 7.816406 -13.609375 8.296875 -13.328125 C 8.785156 -13.054688 9.210938 -12.835938 9.578125 -12.671875 C 9.953125 -12.503906 10.523438 -12.253906 11.296875 -11.921875 C 12.628906 -11.347656 13.765625 -10.570312 14.703125 -9.59375 C 15.648438 -8.625 16.125 -7.519531 16.125 -6.28125 C 16.125 -5.09375 15.910156 -4.054688 15.484375 -3.171875 C 15.054688 -2.296875 14.46875 -1.601562 13.71875 -1.09375 C 12.976562 -0.59375 12.15625 -0.222656 11.25 0.015625 C 10.351562 0.253906 9.378906 0.375 8.328125 0.375 C 7.429688 0.375 6.546875 0.28125 5.671875 0.09375 C 4.804688 -0.0820312 4.082031 -0.304688 3.5 -0.578125 C 2.914062 -0.859375 2.390625 -1.128906 1.921875 -1.390625 C 1.453125 -1.660156 1.113281 -1.890625 0.90625 -2.078125 L 0.578125 -2.359375 L 2.921875 -6.3125 C 3.128906 -6.144531 3.40625 -5.929688 3.75 -5.671875 C 4.101562 -5.410156 4.722656 -5.0625 5.609375 -4.625 C 6.503906 -4.195312 7.296875 -3.984375 7.984375 -3.984375 C 9.972656 -3.984375 10.96875 -4.65625 10.96875 -6 C 10.96875 -6.289062 10.894531 -6.554688 10.75 -6.796875 C 10.601562 -7.035156 10.351562 -7.273438 10 -7.515625 C 9.644531 -7.765625 9.328125 -7.957031 9.046875 -8.09375 C 8.773438 -8.238281 8.328125 -8.457031 7.703125 -8.75 C 7.078125 -9.039062 6.613281 -9.257812 6.3125 -9.40625 C 5.0625 -10.03125 4.09375 -10.800781 3.40625 -11.71875 C 2.71875 -12.644531 2.375 -13.644531 2.375 -14.71875 C 2.375 -16.570312 3.054688 -18.085938 4.421875 -19.265625 C 5.796875 -20.441406 7.359375 -21.03125 9.109375 -21.03125 Z M 9.109375 -21.03125 "/></g></g><g style="fill:#053262;fill-opacity:1;"><g transform="translate(172.265679, 263.093011)"><path style="stroke:none" d="M 6.203125 -8.28125 L 6.203125 0 L 1.5 0 L 1.5 -20.65625 L 6.203125 -20.65625 L 6.203125 -12.421875 L 12.859375 -12.421875 L 12.859375 -20.65625 L 17.578125 -20.65625 L 17.578125 0 L 12.859375 0 L 12.859375 -8.28125 Z M 6.203125 -8.28125 "/></g></g><g style="fill:#053262;fill-opacity:1;"><g transform="translate(193.833729, 263.093011)"><path style="stroke:none" d="M 0.578125 -10.34375 C 0.578125 -13.320312 1.59375 -15.847656 3.625 -17.921875 C 5.664062 -19.992188 8.117188 -21.03125 10.984375 -21.03125 C 13.867188 -21.03125 16.320312 -20 18.34375 -17.9375 C 20.363281 -15.875 21.375 -13.34375 21.375 -10.34375 C 21.375 -7.320312 20.378906 -4.78125 18.390625 -2.71875 C 16.410156 -0.65625 13.941406 0.375 10.984375 0.375 C 7.960938 0.375 5.472656 -0.644531 3.515625 -2.6875 C 1.554688 -4.726562 0.578125 -7.28125 0.578125 -10.34375 Z M 5.65625 -10.34375 C 5.65625 -9.25 5.820312 -8.253906 6.15625 -7.359375 C 6.488281 -6.472656 7.070312 -5.722656 7.90625 -5.109375 C 8.738281 -4.492188 9.765625 -4.1875 10.984375 -4.1875 C 12.734375 -4.1875 14.054688 -4.785156 14.953125 -5.984375 C 15.847656 -7.179688 16.296875 -8.632812 16.296875 -10.34375 C 16.296875 -12.019531 15.835938 -13.460938 14.921875 -14.671875 C 14.015625 -15.890625 12.703125 -16.5 10.984375 -16.5 C 9.285156 -16.5 7.972656 -15.890625 7.046875 -14.671875 C 6.117188 -13.460938 5.65625 -12.019531 5.65625 -10.34375 Z M 5.65625 -10.34375 "/></g></g><g style="fill:#053262;fill-opacity:1;"><g transform="translate(218.279016, 263.093011)"><path style="stroke:none" d="M 1.5 -20.65625 L 9.03125 -20.65625 C 11.132812 -20.65625 12.835938 -20.109375 14.140625 -19.015625 C 15.441406 -17.929688 16.09375 -16.351562 16.09375 -14.28125 C 16.09375 -12.21875 15.429688 -10.597656 14.109375 -9.421875 C 12.796875 -8.242188 11.101562 -7.65625 9.03125 -7.65625 L 6.203125 -7.65625 L 6.203125 0 L 1.5 0 Z M 6.203125 -11.421875 L 7.53125 -11.421875 C 8.582031 -11.421875 9.445312 -11.628906 10.125 -12.046875 C 10.800781 -12.472656 11.140625 -13.171875 11.140625 -14.140625 C 11.140625 -15.128906 10.800781 -15.832031 10.125 -16.25 C 9.445312 -16.675781 8.582031 -16.890625 7.53125 -16.890625 L 6.203125 -16.890625 Z M 6.203125 -11.421875 "/></g></g><g style="fill:#053262;fill-opacity:1;"><g transform="translate(237.445191, 263.093011)"><path style="stroke:none" d="M 1.5 -20.65625 L 9.03125 -20.65625 C 11.132812 -20.65625 12.835938 -20.109375 14.140625 -19.015625 C 15.441406 -17.929688 16.09375 -16.351562 16.09375 -14.28125 C 16.09375 -12.21875 15.429688 -10.597656 14.109375 -9.421875 C 12.796875 -8.242188 11.101562 -7.65625 9.03125 -7.65625 L 6.203125 -7.65625 L 6.203125 0 L 1.5 0 Z M 6.203125 -11.421875 L 7.53125 -11.421875 C 8.582031 -11.421875 9.445312 -11.628906 10.125 -12.046875 C 10.800781 -12.472656 11.140625 -13.171875 11.140625 -14.140625 C 11.140625 -15.128906 10.800781 -15.832031 10.125 -16.25 C 9.445312 -16.675781 8.582031 -16.890625 7.53125 -16.890625 L 6.203125 -16.890625 Z M 6.203125 -11.421875 "/></g></g><g style="fill:#053262;fill-opacity:1;"><g transform="translate(256.611365, 263.093011)"><path style="stroke:none" d="M 6.203125 -20.65625 L 6.203125 0 L 1.5 0 L 1.5 -20.65625 Z M 6.203125 -20.65625 "/></g></g><g style="fill:#053262;fill-opacity:1;"><g transform="translate(266.82057, 263.093011)"><path style="stroke:none" d="M 6.203125 -12.8125 L 6.203125 0 L 1.5 0 L 1.5 -20.65625 L 6.203125 -20.65625 L 14.421875 -7.828125 L 14.46875 -7.828125 L 14.46875 -20.65625 L 19.171875 -20.65625 L 19.171875 0 L 14.46875 0 L 6.265625 -12.8125 Z M 6.203125 -12.8125 "/></g></g><g style="fill:#053262;fill-opacity:1;"><g transform="translate(289.989865, 263.093011)"><path style="stroke:none" d="M 20.171875 -11.5625 L 20.171875 -7.078125 C 19.640625 -4.628906 18.472656 -2.773438 16.671875 -1.515625 C 14.867188 -0.253906 12.859375 0.375 10.640625 0.375 C 7.847656 0.375 5.472656 -0.664062 3.515625 -2.75 C 1.554688 -4.832031 0.578125 -7.351562 0.578125 -10.3125 C 0.578125 -13.3125 1.535156 -15.847656 3.453125 -17.921875 C 5.367188 -19.992188 7.765625 -21.03125 10.640625 -21.03125 C 13.992188 -21.03125 16.644531 -19.851562 18.59375 -17.5 L 15.515625 -14.125 C 14.421875 -15.882812 12.882812 -16.765625 10.90625 -16.765625 C 9.457031 -16.765625 8.21875 -16.132812 7.1875 -14.875 C 6.164062 -13.613281 5.65625 -12.09375 5.65625 -10.3125 C 5.65625 -8.5625 6.164062 -7.0625 7.1875 -5.8125 C 8.21875 -4.570312 9.457031 -3.953125 10.90625 -3.953125 C 12.113281 -3.953125 13.160156 -4.3125 14.046875 -5.03125 C 14.941406 -5.757812 15.390625 -6.726562 15.390625 -7.9375 L 10.640625 -7.9375 L 10.640625 -11.5625 Z M 20.171875 -11.5625 "/></g></g></g></svg>